
<svg xmlns="http://www.w3.org/2000/svg">
  <symbol id="icon-user" viewBox="0 0 24 24" fill="currentColor">
      <path d="M12 6c1.1 0 2 .9 2 2s-.9 2-2 2-2-.9-2-2 .9-2 2-2m0 10c2.7 0 5.8 1.29 6 2H6c.23-.72 3.31-2 6-2m0-12C9.79 4 8 5.79 8 8s1.79 4 4 4 4-1.79 4-4-1.79-4-4-4zm0 10c-2.67 0-8 1.34-8 4v2h16v-2c0-2.66-5.33-4-8-4z"/>
  </symbol>
  <symbol id="icon-doc" viewBox="0 0 24 24" fill="currentColor">
    <path d="M4 6H2v14c0 1.1.9 2 2 2h14v-2H4V6zm16-4H8c-1.1 0-2 .9-2 2v12c0 1.1.9 2 2 2h12c1.1 0 2-.9 2-2V4c0-1.1-.9-2-2-2zm0 14H8V4h12v12zM10 9h8v2h-8zm0 3h4v2h-4zm0-6h8v2h-8z"/>
  </symbol>
  <symbol id="icon-home" viewBox="0 0 24 24" fill="currentColor">
    <rect fill="none" height="24" width="24"/></g><g><g><path d="M22,11V9L12,2L2,9v2h2v9H2v2h20v-2h-2v-9H22z M18,20H6V9h12V20z"/>
  </symbol>
  <symbol id="icon-chat" viewBox="0 0 24 24" fill="currentColor">
    <path d="M15 4v7H5.17l-.59.59-.58.58V4h11m1-2H3c-.55 0-1 .45-1 1v14l4-4h10c.55 0 1-.45 1-1V3c0-.55-.45-1-1-1zm5 4h-2v9H6v2c0 .55.45 1 1 1h11l4 4V7c0-.55-.45-1-1-1z"/>
  </symbol>
  <symbol id="icon-doc-stack" viewBox="0 0 24 24" fill="currentColor">
    <g><path d="M19,5v14H5V5H19 M19,3H5C3.9,3,3,3.9,3,5v14c0,1.1,0.9,2,2,2h14c1.1,0,2-0.9,2-2V5C21,3.9,20.1,3,19,3L19,3z"/></g><path d="M14,17H7v-2h7V17z M17,13H7v-2h10V13z M17,9H7V7h10V9z"/></g>
  </symbol>
  <symbol id="icon-knowledge-base" viewBox="0 0 24 24" fill="currentColor">
    <g><g><path d="M15.82,7.22l-1,0.4c-0.21-0.16-0.43-0.29-0.67-0.39L14,6.17C13.98,6.07,13.9,6,13.8,6h-1.6c-0.1,0-0.18,0.07-0.19,0.17 l-0.15,1.06c-0.24,0.1-0.47,0.23-0.67,0.39l-1-0.4c-0.09-0.03-0.2,0-0.24,0.09l-0.8,1.38c-0.05,0.09-0.03,0.2,0.05,0.26l0.85,0.66 C10.02,9.73,10,9.87,10,10c0,0.13,0.01,0.26,0.03,0.39l-0.84,0.66c-0.08,0.06-0.1,0.17-0.05,0.25l0.8,1.39 c0.05,0.09,0.15,0.12,0.25,0.09l0.99-0.4c0.21,0.16,0.43,0.29,0.68,0.39L12,13.83c0.02,0.1,0.1,0.17,0.2,0.17h1.6 c0.1,0,0.18-0.07,0.2-0.17l0.15-1.06c0.24-0.1,0.47-0.23,0.67-0.39l0.99,0.4c0.09,0.04,0.2,0,0.24-0.09l0.8-1.39 c0.05-0.09,0.03-0.19-0.05-0.25l-0.83-0.66C15.99,10.26,16,10.13,16,10c0-0.14-0.01-0.27-0.03-0.39l0.85-0.66 c0.08-0.06,0.1-0.17,0.05-0.26l-0.8-1.38C16.02,7.22,15.91,7.19,15.82,7.22z M13,11.43c-0.79,0-1.43-0.64-1.43-1.43 S12.21,8.57,13,8.57s1.43,0.64,1.43,1.43S13.79,11.43,13,11.43z"/><path d="M19.94,9.06c-0.43-3.27-3.23-5.86-6.53-6.05C13.27,3,13.14,3,13,3C9.47,3,6.57,5.61,6.08,9l-1.93,3.48 C3.74,13.14,4.22,14,5,14h1v2c0,1.1,0.9,2,2,2h1v3h7v-4.68C18.62,15.07,20.35,12.24,19.94,9.06z M14.89,14.63L14,15.05V19h-3v-3H8 v-4H6.7l1.33-2.33C8.21,7.06,10.35,5,13,5c2.76,0,5,2.24,5,5C18,12.09,16.71,13.88,14.89,14.63z"/></g></g>
  </symbol>
  <symbol id="icon-library" viewBox="0 0 24 24" fill="currentColor">
    <g><path d="M17,11V3H7v4H3v14h8v-4h2v4h8V11H17z M7,19H5v-2h2V19z M7,15H5v-2h2V15z M7,11H5V9h2V11z M11,15H9v-2h2V15z M11,11H9V9h2 V11z M11,7H9V5h2V7z M15,15h-2v-2h2V15z M15,11h-2V9h2V11z M15,7h-2V5h2V7z M19,19h-2v-2h2V19z M19,15h-2v-2h2V15z"/></g>
  </symbol>
  <symbol id="icon-chip" viewBox="0 0 24 24" fill="currentColor">
    <path d="M15 9H9v6h6V9zm-2 4h-2v-2h2v2zm8-2V9h-2V7c0-1.1-.9-2-2-2h-2V3h-2v2h-2V3H9v2H7c-1.1 0-2 .9-2 2v2H3v2h2v2H3v2h2v2c0 1.1.9 2 2 2h2v2h2v-2h2v2h2v-2h2c1.1 0 2-.9 2-2v-2h2v-2h-2v-2h2zm-4 6H7V7h10v10z"/>
  </symbol>
  <symbol id="icon-users" viewBox="0 0 24 24" fill="currentColor">
    <path d="M9 13.75c-2.34 0-7 1.17-7 3.5V19h14v-1.75c0-2.33-4.66-3.5-7-3.5zM4.34 17c.84-.58 2.87-1.25 4.66-1.25s3.82.67 4.66 1.25H4.34zM9 12c1.93 0 3.5-1.57 3.5-3.5S10.93 5 9 5 5.5 6.57 5.5 8.5 7.07 12 9 12zm0-5c.83 0 1.5.67 1.5 1.5S9.83 10 9 10s-1.5-.67-1.5-1.5S8.17 7 9 7zm7.04 6.81c1.16.84 1.96 1.96 1.96 3.44V19h4v-1.75c0-2.02-3.5-3.17-5.96-3.44zM15 12c1.93 0 3.5-1.57 3.5-3.5S16.93 5 15 5c-.54 0-1.04.13-1.5.35.63.89 1 1.98 1 3.15s-.37 2.26-1 3.15c.46.22.96.35 1.5.35z"/>
  </symbol>
  <symbol id="icon-return" viewBox="0 0 24 24" fill="currentColor">
    <g><path d="M6,13c0-1.65,0.67-3.15,1.76-4.24L6.34,7.34C4.9,8.79,4,10.79,4,13c0,4.08,3.05,7.44,7,7.93v-2.02 C8.17,18.43,6,15.97,6,13z M20,13c0-4.42-3.58-8-8-8c-0.06,0-0.12,0.01-0.18,0.01l1.09-1.09L11.5,2.5L8,6l3.5,3.5l1.41-1.41 l-1.08-1.08C11.89,7.01,11.95,7,12,7c3.31,0,6,2.69,6,6c0,2.97-2.17,5.43-5,5.91v2.02C16.95,20.44,20,17.08,20,13z"/></g>7
  </symbol>
  <symbol id="icon-domicile" viewBox="0 0 24 24" fill="currentColor">
    <g><g><path d="M5,5h2v3h10V5h2v5h2V5c0-1.1-0.9-2-2-2h-4.18C14.4,1.84,13.3,1,12,1S9.6,1.84,9.18,3H5C3.9,3,3,3.9,3,5v14 c0,1.1,0.9,2,2,2h6v-2H5V5z M12,3c0.55,0,1,0.45,1,1s-0.45,1-1,1s-1-0.45-1-1S11.45,3,12,3z"/><polygon points="21,11.5 15.51,17 12.5,14 11,15.5 15.51,20 22.5,13"/></g></g>
  </symbol>
  // icono de location
  <symbol id="icon-location" viewBox="0 0 24 24" fill="currentColor">
    <path d="M15 11V5l-3-3-3 3v2H3v14h18V11h-6zm-8 8H5v-2h2v2zm0-4H5v-2h2v2zm0-4H5V9h2v2zm6 8h-2v-2h2v2zm0-4h-2v-2h2v2zm0-4h-2V9h2v2zm0-4h-2V5h2v2zm6 12h-2v-2h2v2zm0-4h-2v-2h2v2z"/>
  </symbol>
  icono de study
  <symbol id="icon-study" viewBox="0 0 24 24" fill="currentColor">
    <path d="M12 9c2.21 0 4-1.79 4-4s-1.79-4-4-4-4 1.79-4 4 1.79 4 4 4zm0-6c1.1 0 2 .9 2 2s-.9 2-2 2-2-.9-2-2 .9-2 2-2zm0 8.55C9.64 9.35 6.48 8 3 8v11c3.48 0 6.64 1.35 9 3.55 2.36-2.19 5.52-3.55 9-3.55V8c-3.48 0-6.64 1.35-9 3.55zm7 5.58c-2.53.34-4.93 1.3-7 2.82-2.06-1.52-4.47-2.49-7-2.83v-6.95c2.1.38 4.05 1.35 5.64 2.83L12 14.28l1.36-1.27c1.59-1.48 3.54-2.45 5.64-2.83v6.95z"/>
  </symbol>
  <symbol id="icon-card" viewBox="0 0 24 24" fill="currentColor">
    <path d="M20 4H4c-1.11 0-1.99.89-1.99 2L2 18c0 1.11.89 2 2 2h16c1.11 0 2-.89 2-2V6c0-1.11-.89-2-2-2zm0 14H4v-6h16v6zm0-10H4V6h16v2z"/>
  </symbol>
  <symbol id="icon-graduation-cap" viewBox="0 0 24 24" fill="currentColor">
    <path d="M12 3 1 9l4 2.18v6L12 21l7-3.82v-6l2-1.09V17h2V9L12 3zm6.82 6L12 12.72 5.18 9 12 5.28 18.82 9zM17 15.99l-5 2.73-5-2.73v-3.72L12 15l5-2.73v3.72z"/>
  </symbol>
  <symbol id="icon-share" viewBox="0 0 24 24" fill="currentColor">
    <path d="M18 16.08c-.76 0-1.44.3-1.96.77L8.91 12.7c.05-.23.09-.46.09-.7s-.04-.47-.09-.7l7.05-4.11c.54.5 1.25.81 2.04.81 1.66 0 3-1.34 3-3s-1.34-3-3-3-3 1.34-3 3c0 .24.04.47.09.7L8.04 9.81C7.5 9.31 6.79 9 6 9c-1.66 0-3 1.34-3 3s1.34 3 3 3c.79 0 1.5-.31 2.04-.81l7.12 4.16c-.05.21-.08.43-.08.65 0 1.61 1.31 2.92 2.92 2.92s2.92-1.31 2.92-2.92c0-1.61-1.31-2.92-2.92-2.92zM18 4c.55 0 1 .45 1 1s-.45 1-1 1-1-.45-1-1 .45-1 1-1zM6 13c-.55 0-1-.45-1-1s.45-1 1-1 1 .45 1 1-.45 1-1 1zm12 7.02c-.55 0-1-.45-1-1s.45-1 1-1 1 .45 1 1-.45 1-1 1z"/>
  </symbol>
  <symbol id="icon-lighbulb" viewBox="0 0 24 24" fill="currentColor">
    <path d="M9 21c0 .55.45 1 1 1h4c.55 0 1-.45 1-1v-1H9v1zm3-19C8.14 2 5 5.14 5 9c0 2.38 1.19 4.47 3 5.74V17c0 .55.45 1 1 1h6c.55 0 1-.45 1-1v-2.26c1.81-1.27 3-3.36 3-5.74 0-3.86-3.14-7-7-7zm2.85 11.1l-.85.6V16h-4v-2.3l-.85-.6C7.8 12.16 7 10.63 7 9c0-2.76 2.24-5 5-5s5 2.24 5 5c0 1.63-.8 3.16-2.15 4.1z"/>
  </symbol>
  <symbol id="icon-assesment" viewBox="0 0 24 24" fill="currentColor">
    <path d="M19 3H5c-1.1 0-2 .9-2 2v14c0 1.1.9 2 2 2h14c1.1 0 2-.9 2-2V5c0-1.1-.9-2-2-2zm0 16H5V5h14v14zM7 10h2v7H7zm4-3h2v10h-2zm4 6h2v4h-2z"/>
  </symbol>
</svg>